<?xml version="1.0" encoding="UTF-8"?>
<!DOCTYPE svg PUBLIC "-//W3C//DTD SVG 1.1//EN" "http://www.w3.org/Graphics/SVG/1.1/DTD/svg11.dtd">
<!-- Creator: CorelDRAW 2021 (64-Bit) -->
<svg xmlns="http://www.w3.org/2000/svg" xml:space="preserve" width="23.4533mm" height="10.5508mm" version="1.1" style="shape-rendering:geometricPrecision; text-rendering:geometricPrecision; image-rendering:optimizeQuality; fill-rule:evenodd; clip-rule:evenodd"
viewBox="0 0 61.5 27.67"
 xmlns:xlink="http://www.w3.org/1999/xlink"
 xmlns:xodm="http://www.corel.com/coreldraw/odm/2003">
 <defs>
  <style type="text/css">
   <![CDATA[
    .str0 {stroke:#FFDD9D;stroke-width:1.39;stroke-linecap:round;stroke-linejoin:round;stroke-miterlimit:22.9256}
    .fil1 {fill:#F5A91B;fill-rule:nonzero}
    .fil2 {fill:#F5A91C;fill-rule:nonzero}
    .fil3 {fill:#F5AA1C;fill-rule:nonzero}
    .fil4 {fill:#F5AA1D;fill-rule:nonzero}
    .fil5 {fill:#F5AA1E;fill-rule:nonzero}
    .fil6 {fill:#F5AB1F;fill-rule:nonzero}
    .fil7 {fill:#F5AB20;fill-rule:nonzero}
    .fil8 {fill:#F5AB21;fill-rule:nonzero}
    .fil9 {fill:#F5AC21;fill-rule:nonzero}
    .fil10 {fill:#F6AC22;fill-rule:nonzero}
    .fil11 {fill:#F6AC23;fill-rule:nonzero}
    .fil12 {fill:#F6AC24;fill-rule:nonzero}
    .fil13 {fill:#F6AD24;fill-rule:nonzero}
    .fil14 {fill:#F6AD25;fill-rule:nonzero}
    .fil15 {fill:#F6AD26;fill-rule:nonzero}
    .fil16 {fill:#F6AE27;fill-rule:nonzero}
    .fil17 {fill:#F6AE28;fill-rule:nonzero}
    .fil18 {fill:#F6AE29;fill-rule:nonzero}
    .fil19 {fill:#F6AF29;fill-rule:nonzero}
    .fil20 {fill:#F6AF2A;fill-rule:nonzero}
    .fil21 {fill:#F6AF2B;fill-rule:nonzero}
    .fil22 {fill:#F6B02B;fill-rule:nonzero}
    .fil23 {fill:#F6B02C;fill-rule:nonzero}
    .fil24 {fill:#F6B02D;fill-rule:nonzero}
    .fil25 {fill:#F6B02E;fill-rule:nonzero}
    .fil26 {fill:#F6B12E;fill-rule:nonzero}
    .fil27 {fill:#F7B12F;fill-rule:nonzero}
    .fil28 {fill:#F7B130;fill-rule:nonzero}
    .fil29 {fill:#F7B230;fill-rule:nonzero}
    .fil30 {fill:#F7B231;fill-rule:nonzero}
    .fil31 {fill:#F7B232;fill-rule:nonzero}
    .fil32 {fill:#F7B233;fill-rule:nonzero}
    .fil33 {fill:#F7B333;fill-rule:nonzero}
    .fil34 {fill:#F7B334;fill-rule:nonzero}
    .fil35 {fill:#F7B335;fill-rule:nonzero}
    .fil36 {fill:#F7B436;fill-rule:nonzero}
    .fil37 {fill:#F7B437;fill-rule:nonzero}
    .fil38 {fill:#F7B438;fill-rule:nonzero}
    .fil39 {fill:#F7B538;fill-rule:nonzero}
    .fil40 {fill:#F7B539;fill-rule:nonzero}
    .fil41 {fill:#F7B53A;fill-rule:nonzero}
    .fil42 {fill:#F7B63A;fill-rule:nonzero}
    .fil43 {fill:#F7B63B;fill-rule:nonzero}
    .fil44 {fill:#F8B63C;fill-rule:nonzero}
    .fil45 {fill:#F8B63D;fill-rule:nonzero}
    .fil46 {fill:#F8B73D;fill-rule:nonzero}
    .fil47 {fill:#F8B73E;fill-rule:nonzero}
    .fil48 {fill:#F8B73F;fill-rule:nonzero}
    .fil49 {fill:#F8B83F;fill-rule:nonzero}
    .fil50 {fill:#F8B840;fill-rule:nonzero}
    .fil51 {fill:#F8B841;fill-rule:nonzero}
    .fil52 {fill:#F8B942;fill-rule:nonzero}
    .fil53 {fill:#F8B943;fill-rule:nonzero}
    .fil54 {fill:#F8B944;fill-rule:nonzero}
    .fil55 {fill:#F8BA45;fill-rule:nonzero}
    .fil56 {fill:#F8BA46;fill-rule:nonzero}
    .fil57 {fill:#F8BA47;fill-rule:nonzero}
    .fil58 {fill:#F8BB47;fill-rule:nonzero}
    .fil59 {fill:#F8BB48;fill-rule:nonzero}
    .fil60 {fill:#F9BB49;fill-rule:nonzero}
    .fil61 {fill:#F9BC49;fill-rule:nonzero}
    .fil62 {fill:#F9BC4A;fill-rule:nonzero}
    .fil63 {fill:#F9BC4B;fill-rule:nonzero}
    .fil64 {fill:#F9BC4C;fill-rule:nonzero}
    .fil65 {fill:#F9BD4C;fill-rule:nonzero}
    .fil66 {fill:#F9BD4D;fill-rule:nonzero}
    .fil67 {fill:#F9BD4E;fill-rule:nonzero}
    .fil68 {fill:#F9BE4E;fill-rule:nonzero}
    .fil69 {fill:#F9BE4F;fill-rule:nonzero}
    .fil70 {fill:#F9BE50;fill-rule:nonzero}
    .fil71 {fill:#F9BF51;fill-rule:nonzero}
    .fil72 {fill:#F9BF52;fill-rule:nonzero}
    .fil73 {fill:#F9BF53;fill-rule:nonzero}
    .fil74 {fill:#F9C054;fill-rule:nonzero}
    .fil75 {fill:#F9C055;fill-rule:nonzero}
    .fil76 {fill:#FAC056;fill-rule:nonzero}
    .fil77 {fill:#FAC156;fill-rule:nonzero}
    .fil78 {fill:#FAC157;fill-rule:nonzero}
    .fil79 {fill:#FAC158;fill-rule:nonzero}
    .fil80 {fill:#FAC258;fill-rule:nonzero}
    .fil81 {fill:#FAC259;fill-rule:nonzero}
    .fil82 {fill:#FAC25A;fill-rule:nonzero}
    .fil83 {fill:#FAC25B;fill-rule:nonzero}
    .fil84 {fill:#FAC35B;fill-rule:nonzero}
    .fil85 {fill:#FAC35C;fill-rule:nonzero}
    .fil86 {fill:#FAC35D;fill-rule:nonzero}
    .fil87 {fill:#FAC45E;fill-rule:nonzero}
    .fil88 {fill:#FAC45F;fill-rule:nonzero}
    .fil89 {fill:#FAC460;fill-rule:nonzero}
    .fil90 {fill:#FAC561;fill-rule:nonzero}
    .fil91 {fill:#FAC562;fill-rule:nonzero}
    .fil92 {fill:#FAC662;fill-rule:nonzero}
    .fil93 {fill:#FBC663;fill-rule:nonzero}
    .fil94 {fill:#FBC664;fill-rule:nonzero}
    .fil95 {fill:#FBC765;fill-rule:nonzero}
    .fil96 {fill:#FBC766;fill-rule:nonzero}
    .fil97 {fill:#FBC767;fill-rule:nonzero}
    .fil98 {fill:#FBC868;fill-rule:nonzero}
    .fil99 {fill:#FBC869;fill-rule:nonzero}
    .fil100 {fill:#FBC96A;fill-rule:nonzero}
    .fil101 {fill:#FBC96B;fill-rule:nonzero}
    .fil102 {fill:#FBC96C;fill-rule:nonzero}
    .fil103 {fill:#FBCA6D;fill-rule:nonzero}
    .fil104 {fill:#FBCA6E;fill-rule:nonzero}
    .fil105 {fill:#FBCA6F;fill-rule:nonzero}
    .fil106 {fill:#FCCB70;fill-rule:nonzero}
    .fil107 {fill:#FCCB71;fill-rule:nonzero}
    .fil108 {fill:#FCCC72;fill-rule:nonzero}
    .fil109 {fill:#FCCC73;fill-rule:nonzero}
    .fil110 {fill:#FCCD74;fill-rule:nonzero}
    .fil111 {fill:#FCCD75;fill-rule:nonzero}
    .fil112 {fill:#FCCE76;fill-rule:nonzero}
    .fil113 {fill:#FCCE77;fill-rule:nonzero}
    .fil114 {fill:#FCCE78;fill-rule:nonzero}
    .fil115 {fill:#FCCF79;fill-rule:nonzero}
    .fil116 {fill:#FCCF7A;fill-rule:nonzero}
    .fil117 {fill:#FCCF7B;fill-rule:nonzero}
    .fil118 {fill:#FCD07C;fill-rule:nonzero}
    .fil119 {fill:#FDD07D;fill-rule:nonzero}
    .fil120 {fill:#FDD17E;fill-rule:nonzero}
    .fil121 {fill:#FDD17F;fill-rule:nonzero}
    .fil122 {fill:#FDD180;fill-rule:nonzero}
    .fil123 {fill:#FDD281;fill-rule:nonzero}
    .fil124 {fill:#FDD282;fill-rule:nonzero}
    .fil125 {fill:#FDD283;fill-rule:nonzero}
    .fil126 {fill:#FDD384;fill-rule:nonzero}
    .fil127 {fill:#FDD485;fill-rule:nonzero}
    .fil128 {fill:#FDD486;fill-rule:nonzero}
    .fil129 {fill:#FDD487;fill-rule:nonzero}
    .fil130 {fill:#FDD588;fill-rule:nonzero}
    .fil131 {fill:#FDD589;fill-rule:nonzero}
    .fil132 {fill:#FED58A;fill-rule:nonzero}
    .fil133 {fill:#FED68B;fill-rule:nonzero}
    .fil134 {fill:#FED68C;fill-rule:nonzero}
    .fil135 {fill:#FED78D;fill-rule:nonzero}
    .fil136 {fill:#FED78E;fill-rule:nonzero}
    .fil137 {fill:#FED78F;fill-rule:nonzero}
    .fil138 {fill:#FED890;fill-rule:nonzero}
    .fil139 {fill:#FED891;fill-rule:nonzero}
    .fil140 {fill:#FED892;fill-rule:nonzero}
    .fil141 {fill:#FED993;fill-rule:nonzero}
    .fil142 {fill:#FED994;fill-rule:nonzero}
    .fil143 {fill:#FEDA95;fill-rule:nonzero}
    .fil144 {fill:#FEDA96;fill-rule:nonzero}
    .fil145 {fill:#FFDB97;fill-rule:nonzero}
    .fil146 {fill:#FFDB98;fill-rule:nonzero}
    .fil147 {fill:#FFDB99;fill-rule:nonzero}
    .fil148 {fill:#FFDC9A;fill-rule:nonzero}
    .fil149 {fill:#FFDC9B;fill-rule:nonzero}
    .fil150 {fill:#FFDD9C;fill-rule:nonzero}
    .fil0 {fill:#FFDD9D;fill-rule:nonzero}
    .fil151 {fill:url(#id1)}
   ]]>
  </style>
    <clipPath id="id0" style="clip-rule:nonzero">
     <path d="M46.38 27.33l0 -21.33 -9.45 0 0 4.74 8.08 0 0 5.85 -8.08 0 0 10.74 -5.36 0 -1.2 0 -5.09 0 -1.45 -11.82c-0.1,-0.83 -0.2,-1.76 -0.28,-2.78 -0.08,-1.02 -0.16,-2.13 -0.22,-3.34 -0.16,1.16 -0.47,2.6 -0.93,4.33 -0.1,0.36 -0.18,0.62 -0.22,0.8l-3.35 12.81 -4.49 0 -3.35 -12.81c-0.05,-0.18 -0.12,-0.45 -0.21,-0.8 -0.47,-1.73 -0.78,-3.17 -0.93,-4.31 -0.06,1.03 -0.14,2.06 -0.24,3.07 -0.09,1.01 -0.2,2.03 -0.32,3.03l-1.45 11.82 -6.26 0 3.81 -27.33 6.66 0 3.72 14.09c0.02,0.1 0.07,0.26 0.14,0.49 0.35,1.26 0.56,2.33 0.66,3.23 0.05,-0.49 0.13,-1.03 0.25,-1.62 0.12,-0.59 0.29,-1.31 0.51,-2.14l3.76 -14.06 6.68 0 2.59 18.69 0 -18.69 16.01 0 0.75 0 14.38 0 0 6 -8.57 0 0 4.74 8.08 0 0 5.85 -8.08 0 0 4.63 8.57 0 0 6.12 -15.13 0z"/>
    </clipPath>
  <linearGradient id="id1" gradientUnits="userSpaceOnUse" x1="22.24" y1="11.36" x2="22.24" y2="26.97">
   <stop offset="0" style="stop-opacity:0.717647; stop-color:black"/>
   <stop offset="0.0117647" style="stop-opacity:0.717647; stop-color:black"/>
   <stop offset="1" style="stop-opacity:0.717647; stop-color:black"/>
  </linearGradient>
 </defs>
 <g id="Layer_x0020_1">
  <metadata id="CorelCorpID_0Corel-Layer"/>
  <g>
   <g style="clip-path:url(#id0)">
    <polygon class="fil0" points="0.89,0.14 61.46,-1.75 62.2,27.31 1.63,29.2 "/>
    <polygon id="_1" class="fil1" points="30.39,17.35 30.75,17.34 30.76,17.73 30.4,17.74 "/>
    <path id="_2" class="fil1" d="M30.45 17.41l0.01 0.26 0.24 -0.01 -0.01 -0.26 -0.24 0.01zm-0.18 -0.19l0.59 -0.02 0.02 0.66 -0.59 0.02 -0.02 -0.66z"/>
    <path id="_3" class="fil2" d="M30.33 17.28l0.01 0.53 0.48 -0.01 -0.01 -0.53 -0.48 0.01zm-0.18 -0.19l0.83 -0.03 0.02 0.92 -0.83 0.03 -0.02 -0.92z"/>
    <path id="_4" class="fil2" d="M30.21 17.16l0.02 0.79 0.71 -0.02 -0.02 -0.79 -0.71 0.02zm-0.18 -0.19l1.07 -0.03 0.03 1.18 -1.07 0.03 -0.03 -1.18z"/>
    <path id="_5" class="fil3" d="M30.08 17.03l0.03 1.05 0.95 -0.03 -0.03 -1.05 -0.95 0.03zm-0.18 -0.19l1.31 -0.04 0.04 1.45 -1.31 0.04 -0.04 -1.45z"/>
    <path id="_6" class="fil4" d="M29.96 16.9l0.03 1.32 1.19 -0.04 -0.03 -1.32 -1.19 0.04zm-0.18 -0.19l1.55 -0.05 0.04 1.71 -1.55 0.05 -0.04 -1.71z"/>
    <path id="_7" class="fil4" d="M29.84 16.77l0.04 1.58 1.43 -0.04 -0.04 -1.58 -1.43 0.04zm-0.18 -0.19l1.78 -0.06 0.05 1.97 -1.78 0.06 -0.05 -1.97z"/>
    <path id="_8" class="fil4" d="M29.72 16.64l0.05 1.84 1.66 -0.05 -0.05 -1.84 -1.66 0.05zm-0.18 -0.19l2.02 -0.06 0.06 2.24 -2.02 0.06 -0.06 -2.24z"/>
    <path id="_9" class="fil5" d="M29.59 16.52l0.05 2.11 1.9 -0.06 -0.05 -2.11 -1.9 0.06zm-0.18 -0.19l2.26 -0.07 0.06 2.5 -2.26 0.07 -0.06 -2.5z"/>
    <path id="_10" class="fil5" d="M29.47 16.39l0.06 2.37 2.14 -0.07 -0.06 -2.37 -2.14 0.07zm-0.18 -0.19l2.5 -0.08 0.07 2.76 -2.5 0.08 -0.07 -2.76z"/>
    <path id="_11" class="fil5" d="M29.35 16.26l0.07 2.63 2.38 -0.07 -0.07 -2.63 -2.38 0.07zm-0.18 -0.19l2.74 -0.09 0.08 3.03 -2.74 0.09 -0.08 -3.03z"/>
    <path id="_12" class="fil6" d="M29.23 16.13l0.07 2.9 2.62 -0.08 -0.07 -2.9 -2.62 0.08zm-0.18 -0.19l2.97 -0.09 0.08 3.29 -2.97 0.09 -0.08 -3.29z"/>
    <path id="_13" class="fil6" d="M29.11 16.01l0.08 3.16 2.85 -0.09 -0.08 -3.16 -2.85 0.09zm-0.18 -0.19l3.21 -0.1 0.09 3.55 -3.21 0.1 -0.09 -3.55z"/>
    <path id="_14" class="fil7" d="M28.98 15.88l0.09 3.42 3.09 -0.1 -0.09 -3.42 -3.09 0.1zm-0.18 -0.19l3.45 -0.11 0.1 3.82 -3.45 0.11 -0.1 -3.82z"/>
    <path id="_15" class="fil7" d="M28.86 15.75l0.09 3.69 3.33 -0.1 -0.09 -3.69 -3.33 0.1zm-0.18 -0.19l3.69 -0.11 0.1 4.08 -3.69 0.11 -0.1 -4.08z"/>
    <path id="_16" class="fil7" d="M28.74 15.62l0.1 3.95 3.57 -0.11 -0.1 -3.95 -3.57 0.11zm-0.18 -0.19l3.92 -0.12 0.11 4.34 -3.92 0.12 -0.11 -4.34z"/>
    <path id="_17" class="fil8" d="M28.62 15.49l0.11 4.21 3.81 -0.12 -0.11 -4.21 -3.81 0.12zm-0.18 -0.19l4.16 -0.13 0.12 4.61 -4.16 0.13 -0.12 -4.61z"/>
    <path id="_18" class="fil8" d="M28.49 15.37l0.11 4.47 4.04 -0.13 -0.11 -4.47 -4.04 0.13zm-0.18 -0.19l4.4 -0.14 0.12 4.87 -4.4 0.14 -0.12 -4.87z"/>
    <path id="_19" class="fil9" d="M28.37 15.24l0.12 4.74 4.28 -0.13 -0.12 -4.74 -4.28 0.13zm-0.18 -0.19l4.64 -0.14 0.13 5.13 -4.64 0.14 -0.13 -5.13z"/>
    <path id="_20" class="fil10" d="M28.25 15.11l0.13 5 4.52 -0.14 -0.13 -5 -4.52 0.14zm-0.18 -0.19l4.88 -0.15 0.14 5.4 -4.88 0.15 -0.14 -5.4z"/>
    <path id="_21" class="fil10" d="M28.13 14.98l0.13 5.26 4.76 -0.15 -0.13 -5.26 -4.76 0.15zm-0.18 -0.19l5.11 -0.16 0.14 5.66 -5.11 0.16 -0.14 -5.66z"/>
    <path id="_22" class="fil10" d="M28.01 14.85l0.14 5.53 4.99 -0.16 -0.14 -5.53 -4.99 0.16zm-0.18 -0.19l5.35 -0.17 0.15 5.92 -5.35 0.17 -0.15 -5.92z"/>
    <path id="_23" class="fil11" d="M27.88 14.73l0.15 5.79 5.23 -0.16 -0.15 -5.79 -5.23 0.16zm-0.18 -0.19l5.59 -0.17 0.16 6.19 -5.59 0.17 -0.16 -6.19z"/>
    <path id="_24" class="fil11" d="M27.76 14.6l0.15 6.05 5.47 -0.17 -0.15 -6.05 -5.47 0.17zm-0.18 -0.19l5.83 -0.18 0.16 6.45 -5.83 0.18 -0.16 -6.45z"/>
    <path id="_25" class="fil11" d="M27.64 14.47l0.16 6.32 5.71 -0.18 -0.16 -6.32 -5.71 0.18zm-0.18 -0.19l6.06 -0.19 0.17 6.71 -6.06 0.19 -0.17 -6.71z"/>
    <path id="_26" class="fil12" d="M27.52 14.34l0.17 6.58 5.95 -0.19 -0.17 -6.58 -5.95 0.19zm-0.18 -0.19l6.3 -0.2 0.18 6.98 -6.3 0.2 -0.18 -6.98z"/>
    <path id="_27" class="fil13" d="M27.39 14.21l0.17 6.84 6.18 -0.19 -0.17 -6.84 -6.18 0.19zm-0.18 -0.19l6.54 -0.2 0.18 7.24 -6.54 0.2 -0.18 -7.24z"/>
    <path id="_28" class="fil13" d="M27.27 14.09l0.18 7.11 6.42 -0.2 -0.18 -7.11 -6.42 0.2zm-0.18 -0.19l6.78 -0.21 0.19 7.5 -6.78 0.21 -0.19 -7.5z"/>
    <path id="_29" class="fil14" d="M27.15 13.96l0.19 7.37 6.66 -0.21 -0.19 -7.37 -6.66 0.21zm-0.18 -0.19l7.02 -0.22 0.2 7.77 -7.02 0.22 -0.2 -7.77z"/>
    <path id="_30" class="fil14" d="M27.03 13.83l0.19 7.63 6.9 -0.21 -0.19 -7.63 -6.9 0.21zm-0.18 -0.19l7.25 -0.23 0.2 8.03 -7.25 0.23 -0.2 -8.03z"/>
    <path id="_31" class="fil14" d="M26.9 13.7l0.2 7.9 7.14 -0.22 -0.2 -7.9 -7.14 0.22zm-0.18 -0.19l7.49 -0.23 0.21 8.29 -7.49 0.23 -0.21 -8.29z"/>
    <path id="_32" class="fil15" d="M26.78 13.58l0.21 8.16 7.37 -0.23 -0.21 -8.16 -7.37 0.23zm-0.18 -0.19l7.73 -0.24 0.22 8.55 -7.73 0.24 -0.22 -8.56z"/>
    <path id="_33" class="fil15" d="M26.66 13.45l0.21 8.42 7.61 -0.24 -0.21 -8.42 -7.61 0.24zm-0.18 -0.19l7.97 -0.25 0.22 8.82 -7.97 0.25 -0.22 -8.82z"/>
    <path id="_34" class="fil16" d="M26.54 13.32l0.22 8.69 7.85 -0.24 -0.22 -8.69 -7.85 0.24zm-0.18 -0.19l8.21 -0.26 0.23 9.08 -8.21 0.26 -0.23 -9.08z"/>
    <path id="_35" class="fil16" d="M26.42 13.19l0.23 8.95 8.09 -0.25 -0.23 -8.95 -8.09 0.25zm-0.18 -0.19l8.44 -0.26 0.24 9.34 -8.44 0.26 -0.24 -9.34z"/>
    <path id="_36" class="fil16" d="M26.29 13.06l0.23 9.21 8.32 -0.26 -0.23 -9.21 -8.32 0.26zm-0.18 -0.19l8.68 -0.27 0.24 9.61 -8.68 0.27 -0.24 -9.61z"/>
    <path id="_37" class="fil17" d="M26.17 12.94l0.24 9.48 8.56 -0.27 -0.24 -9.48 -8.56 0.27zm-0.18 -0.19l8.92 -0.28 0.25 9.87 -8.92 0.28 -0.25 -9.87z"/>
    <path id="_38" class="fil17" d="M26.05 12.81l0.25 9.74 8.8 -0.27 -0.25 -9.74 -8.8 0.27zm-0.18 -0.19l9.16 -0.29 0.26 10.13 -9.16 0.29 -0.26 -10.13z"/>
    <path id="_39" class="fil17" d="M25.93 12.68l0.25 10 9.04 -0.28 -0.25 -10 -9.04 0.28zm-0.18 -0.19l9.39 -0.29 0.26 10.4 -9.39 0.29 -0.26 -10.4z"/>
    <path id="_40" class="fil18" d="M25.8 12.55l0.26 10.27 9.28 -0.29 -0.26 -10.27 -9.28 0.29zm-0.18 -0.19l9.63 -0.3 0.27 10.66 -9.63 0.3 -0.27 -10.66z"/>
    <path id="_41" class="fil19" d="M25.68 12.42l0.27 10.53 9.51 -0.3 -0.27 -10.53 -9.51 0.3zm-0.18 -0.19l9.87 -0.31 0.28 10.92 -9.87 0.31 -0.28 -10.92z"/>
    <path id="_42" class="fil19" d="M25.56 12.3l0.27 10.79 9.75 -0.3 -0.27 -10.79 -9.75 0.3zm-0.18 -0.19l10.11 -0.31 0.28 11.19 -10.11 0.31 -0.28 -11.19z"/>
    <path id="_43" class="fil20" d="M25.44 12.17l0.28 11.06 9.99 -0.31 -0.28 -11.06 -9.99 0.31zm-0.18 -0.19l10.35 -0.32 0.29 11.45 -10.35 0.32 -0.29 -11.45z"/>
    <path id="_44" class="fil20" d="M25.32 12.04l0.29 11.32 10.23 -0.32 -0.29 -11.32 -10.23 0.32zm-0.18 -0.19l10.58 -0.33 0.3 11.71 -10.58 0.33 -0.3 -11.71z"/>
    <path id="_45" class="fil20" d="M25.19 11.91l0.29 11.58 10.46 -0.33 -0.29 -11.58 -10.46 0.33zm-0.18 -0.19l10.82 -0.34 0.3 11.98 -10.82 0.34 -0.3 -11.98z"/>
    <path id="_46" class="fil21" d="M25.07 11.78l0.3 11.85 10.7 -0.33 -0.3 -11.85 -10.7 0.33zm-0.18 -0.19l11.06 -0.34 0.31 12.24 -11.06 0.34 -0.31 -12.24z"/>
    <path id="_47" class="fil21" d="M24.95 11.66l0.31 12.11 10.94 -0.34 -0.31 -12.11 -10.94 0.34zm-0.18 -0.19l11.3 -0.35 0.32 12.5 -11.3 0.35 -0.32 -12.5z"/>
    <path id="_48" class="fil22" d="M24.83 11.53l0.31 12.37 11.18 -0.35 -0.31 -12.37 -11.18 0.35zm-0.18 -0.19l11.54 -0.36 0.32 12.77 -11.54 0.36 -0.32 -12.77z"/>
    <path id="_49" class="fil23" d="M24.7 11.4l0.32 12.64 11.42 -0.36 -0.32 -12.64 -11.42 0.36zm-0.18 -0.19l11.77 -0.37 0.33 13.03 -11.77 0.37 -0.33 -13.03z"/>
    <path id="_50" class="fil23" d="M24.58 11.27l0.33 12.9 11.65 -0.36 -0.33 -12.9 -11.65 0.36zm-0.18 -0.19l12.01 -0.37 0.34 13.29 -12.01 0.37 -0.34 -13.29z"/>
    <path id="_51" class="fil23" d="M24.46 11.14l0.33 13.16 11.89 -0.37 -0.33 -13.16 -11.89 0.37zm-0.18 -0.19l12.25 -0.38 0.34 13.56 -12.25 0.38 -0.34 -13.56z"/>
    <path id="_52" class="fil24" d="M24.34 11.02l0.34 13.42 12.13 -0.38 -0.34 -13.43 -12.13 0.38zm-0.18 -0.19l12.49 -0.39 0.35 13.82 -12.49 0.39 -0.35 -13.82z"/>
    <path id="_53" class="fil24" d="M24.21 10.89l0.35 13.69 12.37 -0.39 -0.35 -13.69 -12.37 0.39zm-0.18 -0.19l12.72 -0.4 0.36 14.08 -12.72 0.4 -0.36 -14.08z"/>
    <path id="_54" class="fil25" d="M24.09 10.76l0.35 13.95 12.61 -0.39 -0.35 -13.95 -12.61 0.39zm-0.18 -0.19l12.96 -0.4 0.36 14.35 -12.96 0.4 -0.36 -14.35z"/>
    <path id="_55" class="fil26" d="M23.97 10.63l0.36 14.21 12.84 -0.4 -0.36 -14.21 -12.84 0.4zm-0.18 -0.19l13.2 -0.41 0.37 14.61 -13.2 0.41 -0.37 -14.61z"/>
    <path id="_56" class="fil26" d="M23.85 10.5l0.37 14.48 13.08 -0.41 -0.37 -14.48 -13.08 0.41zm-0.18 -0.19l13.44 -0.42 0.38 14.87 -13.44 0.42 -0.38 -14.87z"/>
    <path id="_57" class="fil27" d="M23.73 10.38l0.38 14.74 13.32 -0.42 -0.38 -14.74 -13.32 0.42zm-0.18 -0.19l13.68 -0.43 0.38 15.14 -13.68 0.43 -0.38 -15.14z"/>
    <path id="_58" class="fil27" d="M23.6 10.25l0.38 15 13.56 -0.42 -0.38 -15 -13.56 0.42zm-0.18 -0.19l13.91 -0.43 0.39 15.4 -13.91 0.43 -0.39 -15.4z"/>
    <path id="_59" class="fil27" d="M23.48 10.12l0.39 15.27 13.79 -0.43 -0.39 -15.27 -13.79 0.43zm-0.18 -0.19l14.15 -0.44 0.4 15.66 -14.15 0.44 -0.4 -15.66z"/>
    <path id="_60" class="fil28" d="M23.36 9.99l0.39 15.53 14.03 -0.44 -0.39 -15.53 -14.03 0.44zm-0.18 -0.19l14.39 -0.45 0.41 15.93 -14.39 0.45 -0.41 -15.93z"/>
    <path id="_61" class="fil28" d="M23.24 9.87l0.4 15.79 14.27 -0.44 -0.4 -15.79 -14.27 0.44zm-0.18 -0.19l14.63 -0.46 0.41 16.19 -14.63 0.46 -0.41 -16.19z"/>
    <path id="_62" class="fil29" d="M23.11 9.74l0.41 16.06 14.51 -0.45 -0.41 -16.06 -14.51 0.45zm-0.18 -0.19l14.86 -0.46 0.42 16.45 -14.86 0.46 -0.42 -16.45z"/>
    <path id="_63" class="fil30" d="M22.99 9.61l0.42 16.32 14.75 -0.46 -0.42 -16.32 -14.75 0.46zm-0.18 -0.19l15.1 -0.47 0.43 16.72 -15.1 0.47 -0.43 -16.72z"/>
    <path id="_64" class="fil30" d="M22.87 9.48l0.42 16.58 14.98 -0.47 -0.42 -16.58 -14.98 0.47zm-0.18 -0.19l15.34 -0.48 0.43 16.98 -15.34 0.48 -0.43 -16.98z"/>
    <path id="_65" class="fil30" d="M22.75 9.35l0.43 16.85 15.22 -0.47 -0.43 -16.85 -15.22 0.47zm-0.18 -0.19l15.58 -0.49 0.44 17.24 -15.58 0.49 -0.44 -17.24z"/>
    <path id="_66" class="fil31" d="M22.63 9.23l0.44 17.11 15.46 -0.48 -0.44 -17.11 -15.46 0.48zm-0.18 -0.19l15.82 -0.49 0.45 17.51 -15.82 0.49 -0.45 -17.51z"/>
    <path id="_67" class="fil31" d="M22.5 9.1l0.44 17.37 15.7 -0.49 -0.44 -17.37 -15.7 0.49zm-0.18 -0.19l16.05 -0.5 0.45 17.77 -16.05 0.5 -0.45 -17.77z"/>
    <path id="_68" class="fil31" d="M22.38 8.97l0.45 17.64 15.93 -0.5 -0.45 -17.64 -15.93 0.5zm-0.18 -0.19l16.29 -0.51 0.46 18.03 -16.29 0.51 -0.46 -18.03z"/>
    <path id="_69" class="fil32" d="M22.26 8.84l0.46 17.9 16.17 -0.5 -0.46 -17.9 -16.17 0.5zm-0.18 -0.19l16.53 -0.52 0.47 18.29 -16.53 0.52 -0.47 -18.29z"/>
    <path id="_70" class="fil33" d="M22.14 8.71l0.46 18.16 16.41 -0.51 -0.46 -18.16 -16.41 0.51zm-0.18 -0.19l16.77 -0.52 0.47 18.56 -16.77 0.52 -0.47 -18.56z"/>
    <path id="_71" class="fil33" d="M22.01 8.59l0.47 18.43 16.65 -0.52 -0.47 -18.43 -16.65 0.52zm-0.18 -0.19l17.01 -0.53 0.48 18.82 -17.01 0.53 -0.48 -18.82z"/>
    <path id="_72" class="fil34" d="M21.89 8.46l0.48 18.69 16.89 -0.53 -0.48 -18.69 -16.89 0.53zm-0.18 -0.19l17.24 -0.54 0.49 19.08 -17.24 0.54 -0.49 -19.08z"/>
    <path id="_73" class="fil34" d="M21.77 8.33l0.48 18.95 17.12 -0.53 -0.48 -18.95 -17.12 0.53zm-0.18 -0.19l17.48 -0.54 0.49 19.35 -17.48 0.54 -0.49 -19.35z"/>
    <path id="_74" class="fil34" d="M21.65 8.2l0.49 19.22 17.36 -0.54 -0.49 -19.22 -17.36 0.54zm-0.18 -0.19l17.72 -0.55 0.5 19.61 -17.72 0.55 -0.5 -19.61z"/>
    <path id="_75" class="fil35" d="M21.52 8.07l0.5 19.48 17.6 -0.55 -0.5 -19.48 -17.6 0.55zm-0.18 -0.19l17.96 -0.56 0.51 19.87 -17.96 0.56 -0.51 -19.87z"/>
    <path id="_76" class="fil35" d="M21.4 7.95l0.5 19.74 17.84 -0.56 -0.5 -19.74 -17.84 0.56zm-0.18 -0.19l18.19 -0.57 0.51 20.14 -18.19 0.57 -0.51 -20.14z"/>
    <path id="_77" class="fil36" d="M21.28 7.82l0.51 20.01 18.08 -0.56 -0.51 -20.01 -18.08 0.56zm-0.18 -0.19l18.43 -0.57 0.52 20.4 -18.43 0.57 -0.52 -20.4z"/>
    <path id="_78" class="fil36" d="M21.16 7.69l0.52 20.27 18.31 -0.57 -0.52 -20.27 -18.31 0.57zm-0.18 -0.19l18.67 -0.58 0.53 20.66 -18.67 0.58 -0.53 -20.66z"/>
    <path id="_79" class="fil36" d="M21.04 7.56l0.52 20.53 18.55 -0.58 -0.52 -20.53 -18.55 0.58zm-0.18 -0.19l18.91 -0.59 0.53 20.93 -18.91 0.59 -0.53 -20.93z"/>
    <path id="_80" class="fil37" d="M20.91 7.44l0.53 20.8 18.79 -0.59 -0.53 -20.8 -18.79 0.59zm-0.18 -0.19l19.15 -0.6 0.54 21.19 -19.15 0.6 -0.54 -21.19z"/>
    <path id="_81" class="fil37" d="M20.79 7.31l0.54 21.06 19.03 -0.59 -0.54 -21.06 -19.03 0.59zm-0.18 -0.19l19.38 -0.6 0.55 21.45 -19.38 0.6 -0.55 -21.45z"/>
    <path id="_82" class="fil37" d="M20.67 7.18l0.54 21.32 19.26 -0.6 -0.54 -21.32 -19.26 0.6zm-0.18 -0.19l19.62 -0.61 0.55 21.72 -19.62 0.61 -0.55 -21.72z"/>
    <path id="_83" class="fil38" d="M20.55 7.05l0.55 21.59 19.5 -0.61 -0.55 -21.59 -19.5 0.61zm-0.18 -0.19l19.86 -0.62 0.56 21.98 -19.86 0.62 -0.56 -21.98z"/>
    <path id="_84" class="fil39" d="M20.42 6.92l0.56 21.85 19.74 -0.61 -0.56 -21.85 -19.74 0.61zm-0.18 -0.19l20.1 -0.63 0.57 22.24 -20.1 0.63 -0.57 -22.24z"/>
    <path id="_85" class="fil39" d="M20.3 6.8l0.56 22.11 19.98 -0.62 -0.56 -22.11 -19.98 0.62zm-0.18 -0.19l20.33 -0.63 0.57 22.51 -20.33 0.63 -0.57 -22.51z"/>
    <path id="_86" class="fil40" d="M20.18 6.67l0.57 22.37 20.22 -0.63 -0.57 -22.37 -20.22 0.63zm-0.18 -0.19l20.57 -0.64 0.58 22.77 -20.57 0.64 -0.58 -22.77z"/>
    <path id="_87" class="fil40" d="M20.06 6.54l0.58 22.64 20.45 -0.64 -0.58 -22.64 -20.45 0.64zm-0.18 -0.19l20.81 -0.65 0.59 23.03 -20.81 0.65 -0.59 -23.03z"/>
    <path id="_88" class="fil40" d="M19.94 6.41l0.58 22.9 20.69 -0.64 -0.58 -22.9 -20.69 0.64zm-0.18 -0.19l21.05 -0.66 0.59 23.3 -21.05 0.66 -0.59 -23.3z"/>
    <path id="_89" class="fil41" d="M19.81 6.28l0.59 23.16 20.93 -0.65 -0.59 -23.16 -20.93 0.65zm-0.18 -0.19l21.29 -0.66 0.6 23.56 -21.29 0.66 -0.6 -23.56z"/>
    <path id="_90" class="fil41" d="M19.69 6.16l0.6 23.43 21.17 -0.66 -0.6 -23.43 -21.17 0.66zm-0.18 -0.19l21.52 -0.67 0.61 23.82 -21.52 0.67 -0.61 -23.82z"/>
    <path id="_91" class="fil42" d="M19.57 6.03l0.6 23.69 21.41 -0.67 -0.6 -23.69 -21.41 0.67zm-0.18 -0.19l21.76 -0.68 0.61 24.09 -21.76 0.68 -0.61 -24.09z"/>
    <path id="_92" class="fil43" d="M19.45 5.9l0.61 23.95 21.64 -0.67 -0.61 -23.95 -21.64 0.67zm-0.18 -0.19l22 -0.69 0.62 24.35 -22 0.69 -0.62 -24.35z"/>
    <path id="_93" class="fil43" d="M19.32 5.77l0.62 24.22 21.88 -0.68 -0.62 -24.22 -21.88 0.68zm-0.18 -0.19l22.24 -0.69 0.63 24.61 -22.24 0.69 -0.63 -24.61z"/>
    <path id="_94" class="fil43" d="M19.2 5.64l0.62 24.48 22.12 -0.69 -0.62 -24.48 -22.12 0.69zm-0.18 -0.19l22.48 -0.7 0.63 24.88 -22.48 0.7 -0.63 -24.88z"/>
    <path id="_95" class="fil44" d="M19.08 5.52l0.63 24.74 22.36 -0.7 -0.63 -24.74 -22.36 0.7zm-0.18 -0.19l22.71 -0.71 0.64 25.14 -22.71 0.71 -0.64 -25.14z"/>
    <path id="_96" class="fil44" d="M18.96 5.39l0.64 25.01 22.59 -0.7 -0.64 -25.01 -22.59 0.7zm-0.18 -0.19l22.95 -0.72 0.65 25.4 -22.95 0.71 -0.65 -25.4z"/>
    <path id="_97" class="fil45" d="M18.84 5.26l0.64 25.27 22.83 -0.71 -0.64 -25.27 -22.83 0.71zm-0.18 -0.19l23.19 -0.72 0.65 25.67 -23.19 0.72 -0.65 -25.67z"/>
    <path id="_98" class="fil46" d="M18.71 5.13l0.65 25.53 23.07 -0.72 -0.65 -25.53 -23.07 0.72zm-0.18 -0.19l23.43 -0.73 0.66 25.93 -23.43 0.73 -0.66 -25.93z"/>
    <path id="_99" class="fil46" d="M18.59 5l0.66 25.8 23.31 -0.73 -0.66 -25.8 -23.31 0.73zm-0.18 -0.19l23.66 -0.74 0.67 26.19 -23.66 0.74 -0.67 -26.19z"/>
    <path id="_100" class="fil47" d="M18.47 4.88l0.66 26.06 23.55 -0.73 -0.66 -26.06 -23.55 0.73zm-0.18 -0.19l23.9 -0.74 0.67 26.45 -23.9 0.74 -0.67 -26.45z"/>
    <path id="_101" class="fil47" d="M18.35 4.75l0.67 26.32 23.78 -0.74 -0.67 -26.32 -23.78 0.74zm-0.18 -0.19l24.14 -0.75 0.68 26.72 -24.14 0.75 -0.68 -26.72z"/>
    <path id="_102" class="fil47" d="M18.22 4.62l0.68 26.59 24.02 -0.75 -0.68 -26.59 -24.02 0.75zm-0.18 -0.19l24.38 -0.76 0.69 26.98 -24.38 0.76 -0.69 -26.98z"/>
    <path id="_103" class="fil48" d="M18.1 4.49l0.68 26.85 24.26 -0.76 -0.68 -26.85 -24.26 0.76zm-0.18 -0.19l24.62 -0.77 0.69 27.24 -24.62 0.77 -0.69 -27.24z"/>
    <path id="_104" class="fil48" d="M17.98 4.37l0.69 27.11 24.5 -0.76 -0.69 -27.11 -24.5 0.76zm-0.18 -0.19l24.85 -0.77 0.7 27.51 -24.85 0.77 -0.7 -27.51z"/>
    <path id="_105" class="fil49" d="M17.86 4.24l0.7 27.38 24.73 -0.77 -0.7 -27.38 -24.73 0.77zm-0.18 -0.19l25.09 -0.78 0.71 27.77 -25.09 0.78 -0.71 -27.77z"/>
    <path id="_106" class="fil50" d="M17.73 4.11l0.7 27.64 24.97 -0.78 -0.7 -27.64 -24.97 0.78zm-0.18 -0.19l25.33 -0.79 0.71 28.03 -25.33 0.79 -0.71 -28.03z"/>
    <path id="_107" class="fil50" d="M17.61 3.98l0.71 27.9 25.21 -0.79 -0.71 -27.9 -25.21 0.79zm-0.18 -0.19l25.57 -0.8 0.72 28.3 -25.57 0.8 -0.72 -28.3z"/>
    <path id="_108" class="fil50" d="M17.49 3.85l0.72 28.17 25.45 -0.79 -0.72 -28.17 -25.45 0.79zm-0.18 -0.19l25.8 -0.8 0.73 28.56 -25.81 0.8 -0.73 -28.56z"/>
    <path id="_109" class="fil51" d="M17.37 3.73l0.72 28.43 25.69 -0.8 -0.72 -28.43 -25.69 0.8zm-0.18 -0.19l26.04 -0.81 0.73 28.82 -26.04 0.81 -0.73 -28.82z"/>
    <path id="_110" class="fil51" d="M17.25 3.6l0.73 28.69 25.92 -0.81 -0.73 -28.69 -25.92 0.81zm-0.18 -0.19l26.28 -0.82 0.74 29.09 -26.28 0.82 -0.74 -29.09z"/>
    <path id="_111" class="fil51" d="M17.12 3.47l0.74 28.96 26.16 -0.82 -0.74 -28.96 -26.16 0.82zm-0.18 -0.19l26.52 -0.83 0.75 29.35 -26.52 0.83 -0.75 -29.35z"/>
    <path id="_112" class="fil52" d="M17 3.34l0.74 29.22 26.4 -0.82 -0.74 -29.22 -26.4 0.82zm-0.18 -0.19l26.76 -0.83 0.75 29.61 -26.76 0.83 -0.75 -29.61z"/>
    <path id="_113" class="fil52" d="M16.88 3.21l0.75 29.48 26.64 -0.83 -0.75 -29.48 -26.64 0.83zm-0.18 -0.19l26.99 -0.84 0.76 29.88 -26.99 0.84 -0.76 -29.88z"/>
    <path id="_114" class="fil52" d="M16.76 3.09l0.76 29.75 26.88 -0.84 -0.76 -29.75 -26.88 0.84zm-0.18 -0.19l27.23 -0.85 0.77 30.14 -27.23 0.85 -0.77 -30.14z"/>
    <path id="_115" class="fil53" d="M16.63 2.96l0.76 30.01 27.11 -0.84 -0.76 -30.01 -27.11 0.84zm-0.18 -0.19l27.47 -0.86 0.77 30.4 -27.47 0.86 -0.77 -30.4z"/>
    <path id="_116" class="fil53" d="M16.51 2.83l0.77 30.27 27.35 -0.85 -0.77 -30.27 -27.35 0.85zm-0.18 -0.19l27.71 -0.86 0.78 30.67 -27.71 0.86 -0.78 -30.67z"/>
    <path id="_117" class="fil54" d="M16.39 2.7l0.78 30.54 27.59 -0.86 -0.78 -30.53 -27.59 0.86zm-0.18 -0.19l27.95 -0.87 0.79 30.93 -27.95 0.87 -0.79 -30.93z"/>
    <path id="_118" class="fil54" d="M16.27 2.57l0.78 30.8 27.83 -0.87 -0.78 -30.8 -27.83 0.87zm-0.18 -0.19l28.18 -0.88 0.79 31.19 -28.18 0.88 -0.79 -31.19z"/>
    <path id="_119" class="fil54" d="M16.15 2.45l0.79 31.06 28.06 -0.87 -0.79 -31.06 -28.06 0.87zm-0.18 -0.19l28.42 -0.89 0.8 31.46 -28.42 0.89 -0.8 -31.46z"/>
    <path id="_120" class="fil55" d="M16.02 2.32l0.8 31.32 28.3 -0.88 -0.8 -31.32 -28.3 0.88zm-0.18 -0.19l28.66 -0.89 0.81 31.72 -28.66 0.89 -0.81 -31.72z"/>
    <path id="_121" class="fil55" d="M15.9 2.19l0.8 31.59 28.54 -0.89 -0.8 -31.59 -28.54 0.89zm-0.18 -0.19l28.9 -0.9 0.81 31.98 -28.9 0.9 -0.81 -31.98z"/>
    <path id="_122" class="fil55" d="M15.78 2.06l0.81 31.85 28.78 -0.9 -0.81 -31.85 -28.78 0.9zm-0.18 -0.19l29.13 -0.91 0.82 32.25 -29.13 0.91 -0.82 -32.25z"/>
    <path id="_123" class="fil56" d="M15.66 1.94l0.82 32.11 29.02 -0.9 -0.82 -32.11 -29.02 0.9zm-0.18 -0.19l29.37 -0.92 0.83 32.51 -29.37 0.92 -0.83 -32.51z"/>
    <path id="_124" class="fil56" d="M15.53 1.81l0.82 32.38 29.25 -0.91 -0.82 -32.38 -29.25 0.91zm-0.18 -0.19l29.61 -0.92 0.83 32.77 -29.61 0.92 -0.83 -32.77z"/>
    <path id="_125" class="fil56" d="M15.41 1.68l0.83 32.64 29.49 -0.92 -0.83 -32.64 -29.49 0.92zm-0.18 -0.19l29.85 -0.93 0.84 33.04 -29.85 0.93 -0.84 -33.04z"/>
    <path id="_126" class="fil57" d="M15.29 1.55l0.84 32.9 29.73 -0.93 -0.84 -32.9 -29.73 0.93zm-0.18 -0.19l30.09 -0.94 0.85 33.3 -30.09 0.94 -0.85 -33.3z"/>
    <path id="_127" class="fil58" d="M15.17 1.42l0.84 33.17 29.97 -0.93 -0.84 -33.17 -29.97 0.93zm-0.18 -0.19l30.32 -0.94 0.85 33.56 -30.32 0.94 -0.85 -33.56z"/>
    <path id="_128" class="fil58" d="M15.04 1.3l0.85 33.43 30.21 -0.94 -0.85 -33.43 -30.21 0.94zm-0.18 -0.19l30.56 -0.95 0.86 33.83 -30.56 0.95 -0.86 -33.83z"/>
    <path id="_129" class="fil59" d="M14.92 1.17l0.86 33.69 30.44 -0.95 -0.86 -33.69 -30.44 0.95zm-0.18 -0.19l30.8 -0.96 0.87 34.09 -30.8 0.96 -0.87 -34.09z"/>
    <path id="_130" class="fil59" d="M14.8 1.04l0.86 33.96 30.68 -0.96 -0.86 -33.96 -30.68 0.96zm-0.18 -0.19l31.04 -0.97 0.87 34.35 -31.04 0.97 -0.87 -34.35z"/>
    <path id="_131" class="fil59" d="M14.68 0.91l0.87 34.22 30.92 -0.96 -0.87 -34.22 -30.92 0.96zm-0.18 -0.19l31.28 -0.97 0.88 34.62 -31.28 0.97 -0.88 -34.62z"/>
    <path id="_132" class="fil60" d="M14.56 0.78l0.88 34.48 31.16 -0.97 -0.88 -34.48 -31.16 0.97zm-0.18 -0.19l31.51 -0.98 0.89 34.88 -31.51 0.98 -0.89 -34.88z"/>
    <path id="_133" class="fil60" d="M14.43 0.66l0.88 34.75 31.39 -0.98 -0.88 -34.75 -31.39 0.98zm-0.18 -0.19l31.75 -0.99 0.89 35.14 -31.75 0.99 -0.89 -35.14z"/>
    <path id="_134" class="fil61" d="M14.31 0.53l0.89 35.01 31.63 -0.99 -0.89 -35.01 -31.63 0.99zm-0.18 -0.19l31.99 -1 0.9 35.4 -31.99 1 -0.9 -35.4z"/>
    <path id="_135" class="fil62" d="M14.19 0.4l0.9 35.27 31.87 -0.99 -0.9 -35.27 -31.87 0.99zm-0.18 -0.19l32.23 -1 0.91 35.67 -32.23 1 -0.91 -35.67z"/>
    <path id="_136" class="fil62" d="M14.07 0.27l0.9 35.54 32.11 -1 -0.9 -35.54 -32.11 1zm-0.18 -0.19l32.46 -1.01 0.91 35.93 -32.46 1.01 -0.91 -35.93z"/>
    <path id="_137" class="fil62" d="M13.94 0.14l0.91 35.8 32.35 -1.01 -0.91 -35.8 -32.35 1.01zm-0.18 -0.19l32.7 -1.02 0.92 36.19 -32.7 1.02 -0.92 -36.19z"/>
    <path id="_138" class="fil63" d="M13.82 0.02l0.92 36.06 32.58 -1.02 -0.92 -36.06 -32.58 1.02zm-0.18 -0.19l32.94 -1.03 0.93 36.46 -32.94 1.03 -0.93 -36.46z"/>
    <path id="_139" class="fil63" d="M13.7 -0.11l0.92 36.33 32.82 -1.02 -0.92 -36.33 -32.82 1.02zm-0.18 -0.19l33.18 -1.03 0.93 36.72 -33.18 1.03 -0.93 -36.72z"/>
    <path id="_140" class="fil64" d="M13.58 -0.24l0.93 36.59 33.06 -1.03 -0.93 -36.59 -33.06 1.03zm-0.18 -0.19l33.42 -1.04 0.94 36.98 -33.42 1.04 -0.94 -36.98z"/>
    <path id="_141" class="fil65" d="M13.46 -0.37l0.94 36.85 33.3 -1.04 -0.94 -36.85 -33.3 1.04zm-0.18 -0.19l33.65 -1.05 0.95 37.25 -33.65 1.05 -0.95 -37.25z"/>
    <path id="_142" class="fil65" d="M13.33 -0.5l0.94 37.12 33.53 -1.04 -0.94 -37.12 -33.53 1.04zm-0.18 -0.19l33.89 -1.06 0.95 37.51 -33.89 1.06 -0.95 -37.51z"/>
    <path id="_143" class="fil66" d="M13.21 -0.62l0.95 37.38 33.77 -1.05 -0.95 -37.38 -33.77 1.05zm-0.18 -0.19l34.13 -1.06 0.96 37.77 -34.13 1.06 -0.96 -37.77z"/>
    <path id="_144" class="fil66" d="M13.09 -0.75l0.96 37.64 34.01 -1.06 -0.96 -37.64 -34.01 1.06zm-0.18 -0.19l34.37 -1.07 0.97 38.04 -34.37 1.07 -0.97 -38.04z"/>
    <path id="_145" class="fil66" d="M12.97 -0.88l0.96 37.91 34.25 -1.07 -0.96 -37.91 -34.25 1.07zm-0.18 -0.19l34.6 -1.08 0.97 38.3 -34.6 1.08 -0.97 -38.3z"/>
    <path id="_146" class="fil67" d="M12.84 -1.01l0.97 38.17 34.49 -1.07 -0.97 -38.17 -34.49 1.07zm-0.18 -0.19l34.84 -1.09 0.98 38.56 -34.84 1.09 -0.98 -38.56z"/>
    <path id="_147" class="fil67" d="M12.72 -1.13l0.98 38.43 34.72 -1.08 -0.98 -38.43 -34.72 1.08zm-0.18 -0.19l35.08 -1.09 0.99 38.83 -35.08 1.09 -0.99 -38.83z"/>
    <path id="_148" class="fil68" d="M12.6 -1.26l0.98 38.7 34.96 -1.09 -0.98 -38.7 -34.96 1.09zm-0.18 -0.19l35.32 -1.1 0.99 39.09 -35.32 1.1 -0.99 -39.09z"/>
    <path id="_149" class="fil69" d="M12.48 -1.39l0.99 38.96 35.2 -1.1 -0.99 -38.96 -35.2 1.1zm-0.18 -0.19l35.56 -1.11 1 39.35 -35.56 1.11 -1 -39.35z"/>
    <path id="_150" class="fil69" d="M12.36 -1.52l1 39.22 35.44 -1.1 -1 -39.22 -35.44 1.1zm-0.18 -0.19l35.79 -1.12 1.01 39.62 -35.79 1.12 -1.01 -39.62z"/>
    <path id="_151" class="fil69" d="M12.23 -1.65l1 39.48 35.68 -1.11 -1 -39.49 -35.68 1.11zm-0.18 -0.19l36.03 -1.12 1.01 39.88 -36.03 1.12 -1.01 -39.88z"/>
    <path id="_152" class="fil70" d="M12.11 -1.77l1.01 39.75 35.91 -1.12 -1.01 -39.75 -35.91 1.12zm-0.18 -0.19l36.27 -1.13 1.02 40.14 -36.27 1.13 -1.02 -40.14z"/>
    <path id="_153" class="fil70" d="M11.99 -1.9l1.02 40.01 36.15 -1.13 -1.02 -40.01 -36.15 1.13zm-0.18 -0.19l36.51 -1.14 1.03 40.41 -36.51 1.14 -1.03 -40.41z"/>
    <path id="_154" class="fil70" d="M11.87 -2.03l1.02 40.27 36.39 -1.13 -1.02 -40.27 -36.39 1.13zm-0.18 -0.19l36.75 -1.14 1.03 40.67 -36.75 1.14 -1.03 -40.67z"/>
    <path id="_155" class="fil71" d="M11.74 -2.16l1.03 40.54 36.63 -1.14 -1.03 -40.54 -36.63 1.14zm-0.18 -0.19l36.98 -1.15 1.04 40.93 -36.98 1.15 -1.04 -40.93z"/>
    <path id="_156" class="fil71" d="M11.62 -2.29l1.04 40.8 36.86 -1.15 -1.04 -40.8 -36.86 1.15zm-0.18 -0.19l37.22 -1.16 1.05 41.2 -37.22 1.16 -1.05 -41.2z"/>
    <path id="_157" class="fil71" d="M11.5 -2.41l1.04 41.06 37.1 -1.16 -1.04 -41.06 -37.1 1.16zm-0.18 -0.19l37.46 -1.17 1.05 41.46 -37.46 1.17 -1.05 -41.46z"/>
    <path id="_158" class="fil72" d="M11.38 -2.54l1.05 41.33 37.34 -1.16 -1.05 -41.33 -37.34 1.16zm-0.18 -0.19l37.7 -1.17 1.06 41.72 -37.7 1.17 -1.06 -41.72z"/>
    <path id="_159" class="fil72" d="M11.25 -2.67l1.06 41.59 37.58 -1.17 -1.06 -41.59 -37.58 1.17zm-0.18 -0.19l37.93 -1.18 1.07 41.99 -37.93 1.18 -1.07 -41.99z"/>
    <path id="_160" class="fil73" d="M11.13 -2.8l1.06 41.85 37.82 -1.18 -1.06 -41.85 -37.82 1.18zm-0.18 -0.19l38.17 -1.19 1.07 42.25 -38.17 1.19 -1.07 -42.25z"/>
    <path id="_161" class="fil73" d="M11.01 -2.93l1.07 42.12 38.05 -1.19 -1.07 -42.12 -38.05 1.19zm-0.18 -0.19l38.41 -1.2 1.08 42.51 -38.41 1.2 -1.08 -42.51z"/>
    <path id="_162" class="fil73" d="M10.89 -3.05l1.08 42.38 38.29 -1.19 -1.08 -42.38 -38.29 1.19zm-0.18 -0.19l38.65 -1.2 1.09 42.78 -38.65 1.2 -1.09 -42.78z"/>
    <path id="_163" class="fil74" d="M10.77 -3.18l1.08 42.64 38.53 -1.2 -1.08 -42.64 -38.53 1.2zm-0.18 -0.19l38.89 -1.21 1.09 43.04 -38.89 1.21 -1.09 -43.04z"/>
    <path id="_164" class="fil74" d="M10.64 -3.31l1.09 42.91 38.77 -1.21 -1.09 -42.91 -38.77 1.21zm-0.18 -0.19l39.12 -1.22 1.1 43.3 -39.12 1.22 -1.1 -43.3z"/>
    <path id="_165" class="fil74" d="M10.52 -3.44l1.1 43.17 39 -1.22 -1.1 -43.17 -39 1.22zm-0.18 -0.19l39.36 -1.23 1.11 43.57 -39.36 1.23 -1.11 -43.57z"/>
    <path id="_166" class="fil75" d="M10.4 -3.57l1.1 43.43 39.24 -1.22 -1.1 -43.43 -39.24 1.22zm-0.18 -0.19l39.6 -1.23 1.11 43.83 -39.6 1.23 -1.11 -43.83z"/>
    <path id="_167" class="fil75" d="M10.28 -3.69l1.11 43.7 39.48 -1.23 -1.11 -43.7 -39.48 1.23zm-0.18 -0.19l39.84 -1.24 1.12 44.09 -39.84 1.24 -1.12 -44.09z"/>
    <path id="_168" class="fil75" d="M10.15 -3.82l1.12 43.96 39.72 -1.24 -1.12 -43.96 -39.72 1.24zm-0.18 -0.19l40.08 -1.25 1.13 44.35 -40.08 1.25 -1.13 -44.35z"/>
    <path id="_169" class="fil76" d="M10.03 -3.95l1.12 44.22 39.96 -1.24 -1.12 -44.22 -39.96 1.24zm-0.18 -0.19l40.31 -1.26 1.13 44.62 -40.31 1.26 -1.13 -44.62z"/>
    <path id="_170" class="fil77" d="M9.91 -4.08l1.13 44.49 40.19 -1.25 -1.13 -44.49 -40.19 1.25zm-0.18 -0.19l40.55 -1.26 1.14 44.88 -40.55 1.26 -1.14 -44.88z"/>
    <path id="_171" class="fil77" d="M9.79 -4.2l1.14 44.75 40.43 -1.26 -1.14 -44.75 -40.43 1.26zm-0.18 -0.19l40.79 -1.27 1.15 45.14 -40.79 1.27 -1.15 -45.14z"/>
    <path id="_172" class="fil78" d="M9.67 -4.33l1.14 45.01 40.67 -1.27 -1.14 -45.01 -40.67 1.27zm-0.18 -0.19l41.03 -1.28 1.15 45.41 -41.03 1.28 -1.15 -45.41z"/>
    <path id="_173" class="fil78" d="M9.54 -4.46l1.15 45.28 40.91 -1.27 -1.15 -45.28 -40.91 1.27zm-0.18 -0.19l41.26 -1.29 1.16 45.67 -41.26 1.29 -1.16 -45.67z"/>
    <path id="_174" class="fil78" d="M9.42 -4.59l1.16 45.54 41.15 -1.28 -1.16 -45.54 -41.15 1.28zm-0.18 -0.19l41.5 -1.29 1.17 45.93 -41.5 1.29 -1.17 -45.93z"/>
    <path id="_175" class="fil79" d="M9.3 -4.72l1.16 45.8 41.38 -1.29 -1.16 -45.8 -41.38 1.29zm-0.18 -0.19l41.74 -1.3 1.18 46.2 -41.74 1.3 -1.18 -46.2z"/>
    <path id="_176" class="fil79" d="M9.18 -4.84l1.17 46.07 41.62 -1.3 -1.17 -46.07 -41.62 1.3zm-0.18 -0.19l41.98 -1.31 1.18 46.46 -41.98 1.31 -1.18 -46.46z"/>
    <path id="_177" class="fil80" d="M9.05 -4.97l1.18 46.33 41.86 -1.3 -1.18 -46.33 -41.86 1.3zm-0.18 -0.19l42.22 -1.32 1.19 46.72 -42.22 1.32 -1.19 -46.72z"/>
    <path id="_178" class="fil81" d="M8.93 -5.1l1.19 46.59 42.1 -1.31 -1.19 -46.59 -42.1 1.31zm-0.18 -0.19l42.45 -1.32 1.2 46.99 -42.45 1.32 -1.2 -46.99z"/>
    <path id="_179" class="fil81" d="M8.81 -5.23l1.19 46.86 42.33 -1.32 -1.19 -46.86 -42.33 1.32zm-0.18 -0.19l42.69 -1.33 1.2 47.25 -42.69 1.33 -1.2 -47.25z"/>
    <path id="_180" class="fil82" d="M8.69 -5.36l1.2 47.12 42.57 -1.33 -1.2 -47.12 -42.57 1.33zm-0.18 -0.19l42.93 -1.34 1.21 47.51 -42.93 1.34 -1.21 -47.51z"/>
    <path id="_181" class="fil82" d="M8.56 -5.48l1.21 47.38 42.81 -1.33 -1.21 -47.38 -42.81 1.33zm-0.18 -0.19l43.17 -1.34 1.22 47.78 -43.17 1.35 -1.22 -47.78z"/>
    <path id="_182" class="fil82" d="M8.44 -5.61l1.21 47.65 43.05 -1.34 -1.21 -47.65 -43.05 1.34zm-0.18 -0.19l43.4 -1.35 1.22 48.04 -43.4 1.35 -1.22 -48.04z"/>
    <path id="_183" class="fil83" d="M8.32 -5.74l1.22 47.91 43.29 -1.35 -1.22 -47.91 -43.29 1.35zm-0.18 -0.19l43.64 -1.36 1.23 48.3 -43.64 1.36 -1.23 -48.3z"/>
    <path id="_184" class="fil84" d="M8.2 -5.87l1.23 48.17 43.52 -1.36 -1.23 -48.17 -43.52 1.36zm-0.18 -0.19l43.88 -1.37 1.24 48.57 -43.88 1.37 -1.24 -48.57z"/>
    <path id="_185" class="fil84" d="M8.08 -6l1.23 48.43 43.76 -1.36 -1.23 -48.43 -43.76 1.36zm-0.18 -0.19l44.12 -1.37 1.24 48.83 -44.12 1.37 -1.24 -48.83z"/>
    <path id="_186" class="fil85" d="M7.95 -6.12l1.24 48.7 44 -1.37 -1.24 -48.7 -44 1.37zm-0.18 -0.19l44.36 -1.38 1.25 49.09 -44.36 1.38 -1.25 -49.09z"/>
    <path id="_187" class="fil85" d="M7.83 -6.25l1.25 48.96 44.24 -1.38 -1.25 -48.96 -44.24 1.38zm-0.18 -0.19l44.59 -1.39 1.26 49.36 -44.59 1.39 -1.26 -49.36z"/>
    <path id="_188" class="fil86" d="M7.71 -6.38l1.25 49.22 44.48 -1.39 -1.25 -49.22 -44.48 1.39zm-0.18 -0.19l44.83 -1.4 1.26 49.62 -44.83 1.4 -1.26 -49.62z"/>
    <path id="_189" class="fil87" d="M7.59 -6.51l1.26 49.49 44.71 -1.39 -1.26 -49.49 -44.71 1.39zm-0.18 -0.19l45.07 -1.4 1.27 49.88 -45.07 1.4 -1.27 -49.88z"/>
    <path id="_190" class="fil88" d="M7.46 -6.64l1.27 49.75 44.95 -1.4 -1.27 -49.75 -44.95 1.4zm-0.18 -0.19l45.31 -1.41 1.28 50.15 -45.31 1.41 -1.28 -50.15z"/>
    <path id="_191" class="fil89" d="M7.34 -6.76l1.27 50.01 45.19 -1.41 -1.27 -50.01 -45.19 1.41zm-0.18 -0.19l45.55 -1.42 1.28 50.41 -45.55 1.42 -1.28 -50.41z"/>
    <path id="_192" class="fil90" d="M7.22 -6.89l1.28 50.28 45.43 -1.42 -1.28 -50.28 -45.43 1.42zm-0.18 -0.19l45.78 -1.43 1.29 50.67 -45.78 1.43 -1.29 -50.67z"/>
    <path id="_193" class="fil91" d="M7.1 -7.02l1.29 50.54 45.66 -1.42 -1.29 -50.54 -45.66 1.42zm-0.18 -0.19l46.02 -1.43 1.3 50.94 -46.02 1.43 -1.3 -50.94z"/>
    <path id="_194" class="fil92" d="M6.98 -7.15l1.29 50.8 45.9 -1.43 -1.29 -50.8 -45.9 1.43zm-0.18 -0.19l46.26 -1.44 1.3 51.2 -46.26 1.44 -1.3 -51.2z"/>
    <path id="_195" class="fil93" d="M6.85 -7.27l1.3 51.07 46.14 -1.44 -1.3 -51.07 -46.14 1.44zm-0.18 -0.19l46.5 -1.45 1.31 51.46 -46.5 1.45 -1.31 -51.46z"/>
    <path id="_196" class="fil94" d="M6.73 -7.4l1.31 51.33 46.38 -1.44 -1.31 -51.33 -46.38 1.45zm-0.18 -0.19l46.73 -1.46 1.32 51.73 -46.73 1.46 -1.32 -51.73z"/>
    <path id="_197" class="fil95" d="M6.61 -7.53l1.31 51.59 46.62 -1.45 -1.31 -51.59 -46.62 1.45zm-0.18 -0.19l46.97 -1.46 1.32 51.99 -46.97 1.46 -1.32 -51.99z"/>
    <path id="_198" class="fil96" d="M6.49 -7.66l1.32 51.86 46.85 -1.46 -1.32 -51.86 -46.85 1.46zm-0.18 -0.19l47.21 -1.47 1.33 52.25 -47.21 1.47 -1.33 -52.25z"/>
    <path id="_199" class="fil97" d="M6.36 -7.79l1.33 52.12 47.09 -1.47 -1.33 -52.12 -47.09 1.47zm-0.18 -0.19l47.45 -1.48 1.34 52.51 -47.45 1.48 -1.34 -52.51z"/>
    <path id="_200" class="fil98" d="M6.24 -7.91l1.33 52.38 47.33 -1.47 -1.33 -52.38 -47.33 1.47zm-0.18 -0.19l47.69 -1.49 1.34 52.78 -47.69 1.49 -1.34 -52.78z"/>
    <path id="_201" class="fil99" d="M6.12 -8.04l1.34 52.65 47.57 -1.48 -1.34 -52.65 -47.57 1.48zm-0.18 -0.19l47.92 -1.49 1.35 53.04 -47.92 1.49 -1.35 -53.04z"/>
    <path id="_202" class="fil100" d="M6 -8.17l1.35 52.91 47.8 -1.49 -1.35 -52.91 -47.8 1.49zm-0.18 -0.19l48.16 -1.5 1.36 53.3 -48.16 1.5 -1.36 -53.3z"/>
    <path id="_203" class="fil101" d="M5.88 -8.3l1.35 53.17 48.04 -1.5 -1.35 -53.17 -48.04 1.5zm-0.18 -0.19l48.4 -1.51 1.36 53.57 -48.4 1.51 -1.36 -53.57z"/>
    <path id="_204" class="fil102" d="M5.75 -8.43l1.36 53.44 48.28 -1.5 -1.36 -53.44 -48.28 1.5zm-0.18 -0.19l48.64 -1.52 1.37 53.83 -48.64 1.52 -1.37 -53.83z"/>
    <path id="_205" class="fil103" d="M5.63 -8.55l1.37 53.7 48.52 -1.51 -1.37 -53.7 -48.52 1.51zm-0.18 -0.19l48.87 -1.52 1.38 54.09 -48.87 1.52 -1.38 -54.09z"/>
    <path id="_206" class="fil104" d="M5.51 -8.68l1.37 53.96 48.76 -1.52 -1.37 -53.96 -48.76 1.52zm-0.18 -0.19l49.11 -1.53 1.38 54.36 -49.11 1.53 -1.38 -54.36z"/>
    <path id="_207" class="fil105" d="M5.39 -8.81l1.38 54.23 48.99 -1.53 -1.38 -54.23 -48.99 1.53zm-0.18 -0.19l49.35 -1.54 1.39 54.62 -49.35 1.54 -1.39 -54.62z"/>
    <path id="_208" class="fil106" d="M5.26 -8.94l1.39 54.49 49.23 -1.53 -1.39 -54.49 -49.23 1.53zm-0.18 -0.19l49.59 -1.55 1.4 54.88 -49.59 1.55 -1.4 -54.88z"/>
    <path id="_209" class="fil107" d="M5.14 -9.07l1.39 54.75 49.47 -1.54 -1.39 -54.75 -49.47 1.54zm-0.18 -0.19l49.83 -1.55 1.4 55.15 -49.83 1.55 -1.4 -55.15z"/>
    <path id="_210" class="fil108" d="M5.02 -9.19l1.4 55.02 49.71 -1.55 -1.4 -55.02 -49.71 1.55zm-0.18 -0.19l50.06 -1.56 1.41 55.41 -50.06 1.56 -1.41 -55.41z"/>
    <path id="_211" class="fil109" d="M4.9 -9.32l1.41 55.28 49.95 -1.56 -1.41 -55.28 -49.95 1.56zm-0.18 -0.19l50.3 -1.57 1.42 55.67 -50.3 1.57 -1.42 -55.67z"/>
    <path id="_212" class="fil109" d="M4.77 -9.45l1.41 55.54 50.18 -1.56 -1.41 -55.54 -50.18 1.56zm-0.18 -0.19l50.54 -1.57 1.42 55.94 -50.54 1.57 -1.42 -55.94z"/>
    <path id="_213" class="fil110" d="M4.65 -9.58l1.42 55.81 50.42 -1.57 -1.42 -55.81 -50.42 1.57zm-0.18 -0.19l50.78 -1.58 1.43 56.2 -50.78 1.58 -1.43 -56.2z"/>
    <path id="_214" class="fil111" d="M4.53 -9.7l1.43 56.07 50.66 -1.58 -1.43 -56.07 -50.66 1.58zm-0.18 -0.19l51.02 -1.59 1.44 56.46 -51.02 1.59 -1.44 -56.46z"/>
    <path id="_215" class="fil112" d="M4.41 -9.83l1.43 56.33 50.9 -1.59 -1.43 -56.33 -50.9 1.59zm-0.18 -0.19l51.25 -1.6 1.44 56.73 -51.25 1.6 -1.44 -56.73z"/>
    <path id="_216" class="fil113" d="M4.29 -9.96l1.44 56.59 51.13 -1.59 -1.44 -56.6 -51.13 1.59zm-0.18 -0.19l51.49 -1.6 1.45 56.99 -51.49 1.6 -1.45 -56.99z"/>
    <path id="_217" class="fil114" d="M4.16 -10.09l1.45 56.86 51.37 -1.6 -1.45 -56.86 -51.37 1.6zm-0.18 -0.19l51.73 -1.61 1.46 57.25 -51.73 1.61 -1.46 -57.25z"/>
    <path id="_218" class="fil115" d="M4.04 -10.22l1.45 57.12 51.61 -1.61 -1.45 -57.12 -51.61 1.61zm-0.18 -0.19l51.97 -1.62 1.46 57.52 -51.97 1.62 -1.46 -57.52z"/>
    <path id="_219" class="fil116" d="M3.92 -10.34l1.46 57.38 51.85 -1.62 -1.46 -57.38 -51.85 1.62zm-0.18 -0.19l52.2 -1.63 1.47 57.78 -52.2 1.63 -1.47 -57.78z"/>
    <path id="_220" class="fil117" d="M3.8 -10.47l1.47 57.65 52.09 -1.62 -1.47 -57.65 -52.09 1.62zm-0.18 -0.19l52.44 -1.63 1.48 58.04 -52.44 1.63 -1.48 -58.04z"/>
    <path id="_221" class="fil118" d="M3.67 -10.6l1.47 57.91 52.32 -1.63 -1.47 -57.91 -52.32 1.63zm-0.18 -0.19l52.68 -1.64 1.48 58.31 -52.68 1.64 -1.48 -58.31z"/>
    <path id="_222" class="fil119" d="M3.55 -10.73l1.48 58.17 52.56 -1.64 -1.48 -58.17 -52.56 1.64zm-0.18 -0.19l52.92 -1.65 1.49 58.57 -52.92 1.65 -1.49 -58.57z"/>
    <path id="_223" class="fil120" d="M3.43 -10.86l1.49 58.44 52.8 -1.65 -1.49 -58.44 -52.8 1.65zm-0.18 -0.19l53.16 -1.66 1.5 58.83 -53.16 1.66 -1.5 -58.83z"/>
    <path id="_224" class="fil121" d="M3.31 -10.98l1.49 58.7 53.04 -1.65 -1.49 -58.7 -53.04 1.65zm-0.18 -0.19l53.39 -1.66 1.5 59.1 -53.39 1.66 -1.5 -59.1z"/>
    <path id="_225" class="fil122" d="M3.19 -11.11l1.5 58.96 53.28 -1.66 -1.5 -58.96 -53.28 1.66zm-0.18 -0.19l53.63 -1.67 1.51 59.36 -53.63 1.67 -1.51 -59.36z"/>
    <path id="_226" class="fil123" d="M3.06 -11.24l1.51 59.23 53.51 -1.67 -1.51 -59.23 -53.51 1.67zm-0.18 -0.19l53.87 -1.68 1.52 59.62 -53.87 1.68 -1.52 -59.62z"/>
    <path id="_227" class="fil124" d="M2.94 -11.37l1.51 59.49 53.75 -1.67 -1.51 -59.49 -53.75 1.67zm-0.18 -0.19l54.11 -1.69 1.52 59.89 -54.11 1.69 -1.52 -59.89z"/>
    <path id="_228" class="fil125" d="M2.82 -11.5l1.52 59.75 53.99 -1.68 -1.52 -59.75 -53.99 1.68zm-0.18 -0.19l54.35 -1.69 1.53 60.15 -54.35 1.69 -1.53 -60.15z"/>
    <path id="_229" class="fil126" d="M2.7 -11.62l1.53 60.02 54.23 -1.69 -1.53 -60.02 -54.23 1.69zm-0.18 -0.19l54.58 -1.7 1.54 60.41 -54.58 1.7 -1.54 -60.41z"/>
    <path id="_230" class="fil126" d="M2.57 -11.75l1.53 60.28 54.46 -1.7 -1.53 -60.28 -54.46 1.7zm-0.18 -0.19l54.82 -1.71 1.54 60.68 -54.82 1.71 -1.54 -60.68z"/>
    <path id="_231" class="fil127" d="M2.45 -11.88l1.54 60.54 54.7 -1.7 -1.54 -60.54 -54.7 1.7zm-0.18 -0.19l55.06 -1.72 1.55 60.94 -55.06 1.72 -1.55 -60.94z"/>
    <path id="_232" class="fil128" d="M2.33 -12.01l1.55 60.81 54.94 -1.71 -1.55 -60.81 -54.94 1.71zm-0.18 -0.19l55.3 -1.72 1.56 61.2 -55.3 1.72 -1.56 -61.2z"/>
    <path id="_233" class="fil129" d="M2.21 -12.14l1.55 61.07 55.18 -1.72 -1.55 -61.07 -55.18 1.72zm-0.18 -0.19l55.53 -1.73 1.56 61.46 -55.53 1.73 -1.56 -61.46z"/>
    <path id="_234" class="fil130" d="M2.08 -12.26l1.56 61.33 55.42 -1.73 -1.56 -61.33 -55.42 1.73zm-0.18 -0.19l55.77 -1.74 1.57 61.73 -55.77 1.74 -1.57 -61.73z"/>
    <path id="_235" class="fil131" d="M1.96 -12.39l1.57 61.6 55.65 -1.73 -1.57 -61.6 -55.65 1.73zm-0.18 -0.19l56.01 -1.75 1.58 61.99 -56.01 1.74 -1.58 -61.99z"/>
    <path id="_236" class="fil132" d="M1.84 -12.52l1.57 61.86 55.89 -1.74 -1.57 -61.86 -55.89 1.74zm-0.18 -0.19l56.25 -1.75 1.58 62.25 -56.25 1.75 -1.58 -62.25z"/>
    <path id="_237" class="fil133" d="M1.72 -12.65l1.58 62.12 56.13 -1.75 -1.58 -62.12 -56.13 1.75zm-0.18 -0.19l56.49 -1.76 1.59 62.52 -56.49 1.76 -1.59 -62.52z"/>
    <path id="_238" class="fil134" d="M1.6 -12.77l1.59 62.39 56.37 -1.76 -1.59 -62.39 -56.37 1.76zm-0.18 -0.19l56.72 -1.77 1.6 62.78 -56.72 1.77 -1.6 -62.78z"/>
    <path id="_239" class="fil135" d="M1.47 -12.9l1.59 62.65 56.6 -1.76 -1.59 -62.65 -56.6 1.76zm-0.18 -0.19l56.96 -1.77 1.6 63.04 -56.96 1.77 -1.6 -63.04z"/>
    <path id="_240" class="fil136" d="M1.35 -13.03l1.6 62.91 56.84 -1.77 -1.6 -62.91 -56.84 1.77zm-0.18 -0.19l57.2 -1.78 1.61 63.31 -57.2 1.78 -1.61 -63.31z"/>
    <path id="_241" class="fil137" d="M1.23 -13.16l1.61 63.18 57.08 -1.78 -1.61 -63.18 -57.08 1.78zm-0.18 -0.19l57.44 -1.79 1.62 63.57 -57.44 1.79 -1.62 -63.57z"/>
    <path id="_242" class="fil138" d="M1.11 -13.29l1.61 63.44 57.32 -1.79 -1.61 -63.44 -57.32 1.79zm-0.18 -0.19l57.68 -1.8 1.62 63.83 -57.68 1.8 -1.62 -63.83z"/>
    <path id="_243" class="fil139" d="M0.98 -13.41l1.62 63.7 57.56 -1.79 -1.62 -63.7 -57.56 1.79zm-0.18 -0.19l57.91 -1.8 1.63 64.1 -57.91 1.8 -1.63 -64.1z"/>
    <path id="_244" class="fil140" d="M0.86 -13.54l1.63 63.97 57.79 -1.8 -1.63 -63.97 -57.79 1.8zm-0.18 -0.19l58.15 -1.81 1.64 64.36 -58.15 1.81 -1.64 -64.36z"/>
    <path id="_245" class="fil141" d="M0.74 -13.67l1.63 64.23 58.03 -1.81 -1.63 -64.23 -58.03 1.81zm-0.18 -0.19l58.39 -1.82 1.64 64.62 -58.39 1.82 -1.64 -64.62z"/>
    <path id="_246" class="fil142" d="M0.62 -13.8l1.64 64.49 58.27 -1.82 -1.64 -64.49 -58.27 1.82zm-0.18 -0.19l58.63 -1.83 1.65 64.89 -58.63 1.83 -1.65 -64.89z"/>
    <path id="_247" class="fil143" d="M0.5 -13.93l1.65 64.76 58.51 -1.82 -1.65 -64.76 -58.51 1.82zm-0.18 -0.19l58.86 -1.83 1.66 65.15 -58.86 1.83 -1.66 -65.15z"/>
    <path id="_248" class="fil143" d="M0.37 -14.05l1.65 65.02 58.75 -1.83 -1.65 -65.02 -58.75 1.83zm-0.18 -0.19l59.1 -1.84 1.66 65.41 -59.1 1.84 -1.66 -65.41z"/>
    <path id="_249" class="fil144" d="M0.25 -14.18l1.66 65.28 58.98 -1.84 -1.66 -65.28 -58.98 1.84zm-0.18 -0.19l59.34 -1.85 1.67 65.68 -59.34 1.85 -1.67 -65.68z"/>
    <path id="_250" class="fil145" d="M0.13 -14.31l1.67 65.54 59.22 -1.85 -1.67 -65.54 -59.22 1.85zm-0.18 -0.19l59.58 -1.86 1.68 65.94 -59.58 1.86 -1.68 -65.94z"/>
    <path id="_251" class="fil146" d="M0.01 -14.44l1.67 65.81 59.46 -1.85 -1.67 -65.81 -59.46 1.85zm-0.18 -0.19l59.82 -1.86 1.68 66.2 -59.82 1.86 -1.68 -66.2z"/>
    <path id="_252" class="fil147" d="M-0.12 -14.57l1.68 66.07 59.7 -1.86 -1.68 -66.07 -59.7 1.86zm-0.18 -0.19l60.05 -1.87 1.69 66.47 -60.05 1.87 -1.69 -66.47z"/>
    <path id="_253" class="fil148" d="M-0.24 -14.69l1.69 66.33 59.93 -1.87 -1.69 -66.33 -59.93 1.87zm-0.18 -0.19l60.29 -1.88 1.7 66.73 -60.29 1.88 -1.7 -66.73z"/>
    <path id="_254" class="fil149" d="M-0.36 -14.82l1.69 66.6 60.17 -1.87 -1.69 -66.6 -60.17 1.87zm-0.18 -0.19l60.53 -1.89 1.7 66.99 -60.53 1.89 -1.7 -66.99z"/>
    <path id="_255" class="fil150" d="M-0.48 -14.95l1.7 66.86 60.41 -1.88 -1.7 -66.86 -60.41 1.88zm-0.18 -0.19l60.77 -1.89 1.71 67.26 -60.77 1.89 -1.71 -67.26z"/>
    <path id="_256" class="fil0" d="M-0.6 -15.08l1.71 67.12 60.65 -1.89 -1.71 -67.12 -60.65 1.89zm-0.12 -0.13l60.89 -1.9 1.71 67.39 -60.89 1.9 -1.71 -67.39z"/>
   </g>
  </g>
  <path class="fil151 str0" d="M0.69 19.17c0,4.31 3.11,7.81 6.95,7.81 2.59,0 4.86,-1.6 6.05,-3.96l5.38 0.05 3.91 -2.52 2.89 1.9 2.91 -1.87 2.91 1.87 2.99 -1.93 2.97 1.91 6.12 -3.94 -5.12 -3.3 -25.02 0c-1.21,-2.3 -3.44,-3.84 -5.99,-3.84 -3.84,0 -6.95,3.5 -6.95,7.81z"/>
 </g>
</svg>
