<?xml version="1.0" encoding="UTF-8"?>
<!DOCTYPE svg PUBLIC "-//W3C//DTD SVG 1.1//EN" "http://www.w3.org/Graphics/SVG/1.1/DTD/svg11.dtd">
<!-- Creator: CorelDRAW 2021 (64-Bit) -->
<svg xmlns="http://www.w3.org/2000/svg" xml:space="preserve" width="106.986mm" height="105.431mm" version="1.1" style="shape-rendering:geometricPrecision; text-rendering:geometricPrecision; image-rendering:optimizeQuality; fill-rule:evenodd; clip-rule:evenodd"
viewBox="0 0 1589.31 1566.2"
 xmlns:xlink="http://www.w3.org/1999/xlink"
 xmlns:xodm="http://www.corel.com/coreldraw/odm/2003">
 <defs>
  <style type="text/css">
   <![CDATA[
    .fil2 {fill:black}
    .fil3 {fill:white}
    .fil1 {fill:black;fill-rule:nonzero}
    .fil0 {fill:url(#id0)}
   ]]>
  </style>
  <linearGradient id="id0" gradientUnits="userSpaceOnUse" x1="-0" y1="783.1" x2="1589.31" y2="783.1">
   <stop offset="0" style="stop-opacity:1; stop-color:#FFDD9D"/>
   <stop offset="1" style="stop-opacity:1; stop-color:#FFDD9D"/>
  </linearGradient>
 </defs>
 <g id="Layer_x0020_1">
  <metadata id="CorelCorpID_0Corel-Layer"/>
  <rect class="fil0" x="0" width="1589.31" height="1566.2"/>
  <g id="_2457378085232">
   <path class="fil1" d="M668.46 388.3l-171.83 0c-36,0 -68.75,14.75 -92.51,38.5l-0.19 0.19c-23.75,23.76 -38.5,56.52 -38.5,92.51l0 184.15 97.49 0 0 -184.15c0,-9.31 3.76,-17.75 9.84,-23.87 6.11,-6.07 14.58,-9.84 23.88,-9.84l171.83 0c9.31,0 17.75,3.76 23.88,9.84 6.08,6.12 9.84,14.57 9.84,23.87l0 260.14 97.49 0 0 -260.14c0,-36 -14.76,-68.75 -38.5,-92.51l-0.19 -0.19c-23.76,-23.75 -56.51,-38.5 -92.51,-38.5z"/>
   <rect class="fil2" x="613.04" y="702.75" width="610.84" height="475.15" rx="78" ry="68.02"/>
   <g>
    <circle class="fil3" cx="918.46" cy="866.3" r="67.64"/>
    <rect class="fil3" x="885.73" y="872.52" width="65.46" height="209.47" rx="32.73" ry="32.73"/>
   </g>
  </g>
 </g>
</svg>
