<?xml version="1.0" encoding="UTF-8"?>
<!DOCTYPE svg PUBLIC "-//W3C//DTD SVG 1.1//EN" "http://www.w3.org/Graphics/SVG/1.1/DTD/svg11.dtd">
<!-- Creator: CorelDRAW 2021 (64-Bit) -->
<svg xmlns="http://www.w3.org/2000/svg" xml:space="preserve" width="106.745mm" height="105.193mm" version="1.1" style="shape-rendering:geometricPrecision; text-rendering:geometricPrecision; image-rendering:optimizeQuality; fill-rule:evenodd; clip-rule:evenodd"
viewBox="0 0 1219.42 1201.69"
 xmlns:xlink="http://www.w3.org/1999/xlink"
 xmlns:xodm="http://www.corel.com/coreldraw/odm/2003">
 <defs>
  <style type="text/css">
   <![CDATA[
    .fil2 {fill:black}
    .fil3 {fill:white}
    .fil1 {fill:black;fill-rule:nonzero}
    .fil0 {fill:url(#id0)}
   ]]>
  </style>
  <linearGradient id="id0" gradientUnits="userSpaceOnUse" x1="-0" y1="600.85" x2="1219.42" y2="600.85">
   <stop offset="0" style="stop-opacity:1; stop-color:#FFDD9D"/>
   <stop offset="1" style="stop-opacity:1; stop-color:#FFDD9D"/>
  </linearGradient>
 </defs>
 <g id="Layer_x0020_1">
  <metadata id="CorelCorpID_0Corel-Layer"/>
  <rect class="fil0" x="0" width="1219.42" height="1201.69"/>
  <g id="_2035190946848">
   <path class="fil1" d="M554.65 345.43l110.13 0c23.07,0 44.06,9.46 59.29,24.68l0.12 0.12c15.22,15.23 24.68,36.22 24.68,59.29l0 51.61 -62.48 0 0 -51.61c0,-5.96 -2.41,-11.38 -6.3,-15.3 -3.92,-3.89 -9.34,-6.31 -15.31,-6.31l-110.13 0c-5.96,0 -11.38,2.41 -15.3,6.31 -3.9,3.92 -6.31,9.34 -6.31,15.3l0 166.72 -62.48 0 0 -166.72c0,-23.07 9.46,-44.06 24.68,-59.29l0.12 -0.12c15.23,-15.22 36.22,-24.68 59.29,-24.68z"/>
   <rect class="fil2" x="413.97" y="551.75" width="391.49" height="304.52" rx="49.99" ry="43.59"/>
   <g>
    <circle class="fil3" cx="609.72" cy="656.57" r="43.35"/>
    <rect class="fil3" x="588.74" y="660.55" width="41.95" height="134.25" rx="20.98" ry="20.98"/>
   </g>
  </g>
 </g>
</svg>
