<?xml version="1.0" encoding="UTF-8"?>
<!DOCTYPE svg PUBLIC "-//W3C//DTD SVG 1.1//EN" "http://www.w3.org/Graphics/SVG/1.1/DTD/svg11.dtd">
<!-- Creator: CorelDRAW 2021 (64-Bit) -->
<svg xmlns="http://www.w3.org/2000/svg" xml:space="preserve" width="341.012mm" height="133.112mm" version="1.1" style="shape-rendering:geometricPrecision; text-rendering:geometricPrecision; image-rendering:optimizeQuality; fill-rule:evenodd; clip-rule:evenodd"
viewBox="0 0 30197.16 11787.22"
 xmlns:xlink="http://www.w3.org/1999/xlink"
 xmlns:xodm="http://www.corel.com/coreldraw/odm/2003">
 <defs>
  <style type="text/css">
   <![CDATA[
    .fil2 {fill:none}
    .fil0 {fill:black}
    .fil1 {fill:url(#id3)}
   ]]>
  </style>
   <clipPath id="id0">
    <path d="M-0 0l30197.16 0 0 11787.22 -30197.16 0 0 -11787.22z"/>
   </clipPath>
    <clipPath id="id1">
     <path d="M8690.34 434.33l12816.49 0 0 10918.58 -12816.49 0 0 -10918.58z"/>
    </clipPath>
    <clipPath id="id2">
     <path d="M-0 0l30197.16 0 0 11787.22 -30197.16 0 0 -11787.22z"/>
    </clipPath>
  <linearGradient id="id3" gradientUnits="userSpaceOnUse" x1="28701.85" y1="9551.02" x2="28533.11" y2="-24519.53">
   <stop offset="0" style="stop-opacity:0.847059; stop-color:#0F0F0F"/>
   <stop offset="0.780392" style="stop-opacity:0.733333; stop-color:#878787"/>
   <stop offset="1" style="stop-opacity:0.619608; stop-color:white"/>
  </linearGradient>
 </defs>
 <g id="Layer_x0020_1">
  <metadata id="CorelCorpID_0Corel-Layer"/>
  <polygon class="fil0" points="-0,0 30197.16,0 30197.16,11787.22 -0,11787.22 "/>
  <g style="clip-path:url(#id0)">
   <g id="_2324214786448">
   </g>
   <g style="clip-path:url(#id1)">
    <image x="8690.34" y="434.33" width="12816.49" height="10918.58" xlink:href="secure_file_bg_Images\secure_file_bg_ImgID1.png"/>
   </g>
   <g style="clip-path:url(#id2)">
    <rect class="fil1" x="-128.02" y="-0" width="30521.59" height="11787.22"/>
   </g>
  </g>
  <polygon class="fil2" points="-0,0 30197.16,0 30197.16,11787.22 -0,11787.22 "/>
 </g>
</svg>
